<?xml version="1.0" encoding="utf-8"?>
<!-- Generator: Adobe Illustrator 16.0.3, SVG Export Plug-In . SVG Version: 6.00 Build 0)  -->
<!DOCTYPE svg PUBLIC "-//W3C//DTD SVG 1.1//EN" "http://www.w3.org/Graphics/SVG/1.1/DTD/svg11.dtd">
<svg version="1.1" xmlns="http://www.w3.org/2000/svg" xmlns:xlink="http://www.w3.org/1999/xlink" x="0px" y="0px" width="784px"
	 height="594px" viewBox="0 0 392 297" xml:space="preserve">
<g id="logo0_1_">
	<g id="outcold">
		<g>
			<path d="M85.5,180.3c0,5.069-1.534,9-4.6,11.8c-3.069,2.801-7.534,4.2-13.4,4.2c-5.734,0-10.169-1.399-13.3-4.2
				c-3.135-2.8-4.7-6.73-4.7-11.8v-114c0-5.065,1.565-9,4.7-11.8c3.131-2.8,7.565-4.2,13.3-4.2c5.866,0,10.331,1.4,13.4,4.2
				c3.066,2.8,4.6,6.734,4.6,11.8V180.3z M76.3,66.5c0-2.931-0.8-5.166-2.4-6.7c-1.6-1.531-3.734-2.3-6.4-2.3
				c-2.669,0-4.8,0.769-6.4,2.3c-1.6,1.535-2.4,3.769-2.4,6.7v113.6c0,2.935,0.8,5.169,2.4,6.7c1.6,1.534,3.731,2.3,6.4,2.3
				c2.666,0,4.8-0.766,6.4-2.3c1.6-1.531,2.4-3.766,2.4-6.7V66.5z"/>
			<path d="M133.699,51.1v129.2c0,5.069-1.534,9-4.6,11.8c-3.069,2.801-7.535,4.2-13.4,4.2c-5.734,0-10.168-1.399-13.3-4.2
				c-3.134-2.8-4.7-6.73-4.7-11.8V51.1h9.2v129c0,2.935,0.8,5.169,2.4,6.7c1.6,1.534,3.731,2.3,6.4,2.3c2.666,0,4.8-0.766,6.4-2.3
				c1.6-1.531,2.4-3.766,2.4-6.7v-129H133.699z"/>
			<path d="M152.099,58.3h-14.2v-7.2h37.4v7.2h-14.2v137.2h-9V58.3z"/>
			<path fill="#3986AD" d="M176.699,66.3c0-5.065,1.531-9,4.6-11.8c3.065-2.8,7.4-4.2,13-4.2c5.466,0,9.6,1.4,12.4,4.2
				c2.8,2.8,4.199,6.734,4.199,11.8v24.2h-9.199v-23c0-2.666-0.5-5-1.5-7s-2.969-3-5.9-3c-2.669,0-4.734,0.734-6.2,2.2
				c-1.469,1.469-2.2,3.469-2.2,6v115.2c0,2.534,0.731,4.534,2.2,6c1.466,1.469,3.531,2.199,6.2,2.199c2.932,0,4.9-0.8,5.9-2.399
				c1-1.601,1.5-4.132,1.5-7.601v-25h9.199v26.2c0,5.069-1.399,9-4.199,11.8c-2.801,2.801-6.935,4.2-12.4,4.2
				c-5.6,0-9.935-1.399-13-4.2c-3.069-2.8-4.6-6.73-4.6-11.8V66.3z"/>
			<path fill="#3986AD" d="M256.298,180.3c0,5.069-1.534,9-4.601,11.8c-3.068,2.801-7.534,4.2-13.399,4.2
				c-5.734,0-10.169-1.399-13.3-4.2c-3.135-2.8-4.7-6.73-4.7-11.8v-114c0-5.065,1.565-9,4.7-11.8c3.131-2.8,7.565-4.2,13.3-4.2
				c5.865,0,10.331,1.4,13.399,4.2c3.066,2.8,4.601,6.734,4.601,11.8V180.3z M247.098,66.5c0-2.931-0.8-5.166-2.4-6.7
				c-1.6-1.531-3.734-2.3-6.399-2.3c-2.669,0-4.8,0.769-6.4,2.3c-1.6,1.535-2.399,3.769-2.399,6.7v113.6
				c0,2.935,0.8,5.169,2.399,6.7c1.601,1.534,3.731,2.3,6.4,2.3c2.665,0,4.8-0.766,6.399-2.3c1.601-1.531,2.4-3.766,2.4-6.7V66.5z"
				/>
			<path fill="#3986AD" d="M268.497,51.1h9.2v137.2h20.8v7.2h-30V51.1z"/>
			<path fill="#3986AD" d="M305.497,51.1h17.6c6,0,10.565,1.234,13.7,3.7c3.131,2.469,4.7,6.5,4.7,12.1v112.8
				c0,5.6-1.569,9.634-4.7,12.1c-3.135,2.469-7.7,3.7-13.7,3.7h-17.6V51.1z M322.297,188.3c6.665,0,10-2.665,10-8v-114
				c0-5.331-3.335-8-10-8h-7.601v130H322.297z"/>
		</g>
	</g>
	<g id="solutions">
		<g>
			<path d="M53.43,242.581c0,0.517,0.24,0.968,0.722,1.355c0.481,0.387,1.458,0.581,2.933,0.581c1.303,0,2.266-0.153,2.89-0.46
				c0.623-0.307,0.935-0.831,0.935-1.573v-5.955c0-0.903-0.142-1.67-0.425-2.3c-0.284-0.629-0.737-1.347-1.36-2.154l-7.055-7.601
				c-0.68-0.742-1.219-1.557-1.615-2.444c-0.397-0.888-0.595-1.653-0.595-2.3v-5.083c0-1.162,0.651-2.073,1.955-2.735
				c1.303-0.661,3.088-0.992,5.355-0.992c2.38,0,4.165,0.267,5.355,0.799s1.785,1.38,1.785,2.541v6.342h-3.57v-6.147
				c0-1.194-1.105-1.792-3.315-1.792c-1.134,0-1.984,0.187-2.55,0.558c-0.567,0.371-0.85,0.815-0.85,1.331v5.373
				c0,1.065,0.453,2.163,1.36,3.292c1.133,1.228,2.281,2.478,3.443,3.752c1.161,1.275,2.308,2.542,3.442,3.801
				c0.736,0.807,1.345,1.639,1.828,2.493c0.48,0.855,0.722,1.783,0.722,2.783v6.536c0,1.13-0.567,2.025-1.7,2.687
				c-1.134,0.662-3.06,0.992-5.78,0.992c-2.72,0-4.647-0.33-5.78-0.992c-1.134-0.661-1.7-1.605-1.7-2.832v-6.294h3.57V242.581z"/>
			<path d="M101.115,242.387c0,1.228-0.652,2.179-1.955,2.856c-1.304,0.678-3.202,1.017-5.695,1.017
				c-2.438,0-4.322-0.339-5.653-1.017c-1.332-0.678-1.998-1.629-1.998-2.856v-27.594c0-1.227,0.666-2.179,1.998-2.856
				c1.331-0.678,3.215-1.017,5.653-1.017c2.493,0,4.391,0.339,5.695,1.017c1.303,0.678,1.955,1.63,1.955,2.856V242.387z
				 M97.205,214.841c0-0.709-0.34-1.25-1.02-1.621c-0.68-0.371-1.587-0.558-2.72-0.558c-1.134,0-2.04,0.187-2.72,0.558
				s-1.02,0.912-1.02,1.621v27.498c0,0.71,0.34,1.251,1.02,1.622s1.586,0.557,2.72,0.557c1.133,0,2.04-0.186,2.72-0.557
				c0.68-0.371,1.02-0.912,1.02-1.622V214.841z"/>
			<path d="M123.299,211.113h3.91v33.21h8.84v1.743h-12.75V211.113z"/>
			<path d="M171.325,211.113v31.273c0,1.228-0.652,2.179-1.955,2.856c-1.304,0.678-3.202,1.017-5.695,1.017
				c-2.438,0-4.322-0.339-5.653-1.017c-1.332-0.678-1.998-1.629-1.998-2.856v-31.273h3.91v31.226c0,0.71,0.34,1.251,1.02,1.622
				s1.586,0.557,2.72,0.557c1.133,0,2.04-0.186,2.72-0.557c0.68-0.371,1.02-0.912,1.02-1.622v-31.226H171.325z"/>
			<path d="M196.145,212.856h-6.035v-1.743h15.895v1.743h-6.035v33.21h-3.824V212.856z"/>
			<path d="M225.043,211.113h3.91v34.953h-3.91V211.113z"/>
			<path d="M266.609,242.387c0,1.228-0.652,2.179-1.955,2.856c-1.305,0.678-3.201,1.017-5.695,1.017
				c-2.438,0-4.322-0.339-5.652-1.017c-1.332-0.678-1.998-1.629-1.998-2.856v-27.594c0-1.227,0.666-2.179,1.998-2.856
				c1.33-0.678,3.215-1.017,5.652-1.017c2.494,0,4.391,0.339,5.695,1.017c1.303,0.678,1.955,1.63,1.955,2.856V242.387z
				 M262.699,214.841c0-0.709-0.34-1.25-1.02-1.621s-1.588-0.558-2.721-0.558c-1.135,0-2.039,0.187-2.719,0.558
				c-0.682,0.371-1.021,0.912-1.021,1.621v27.498c0,0.71,0.34,1.251,1.021,1.622c0.68,0.371,1.584,0.557,2.719,0.557
				c1.133,0,2.041-0.186,2.721-0.557s1.02-0.912,1.02-1.622V214.841z"/>
			<path d="M288.793,211.113h5.611l5.695,22.512c0.51,2.292,1.244,5.083,2.209,8.375c-0.17-1.937-0.313-3.663-0.426-5.18
				c-0.113-1.518-0.17-2.679-0.17-3.486v-22.221h3.91v34.953h-5.609l-5.865-22.221c-0.227-0.839-0.51-2.073-0.85-3.703
				s-0.709-3.381-1.105-5.253c0.057,0.937,0.113,1.823,0.17,2.662c0.057,0.84,0.113,1.598,0.17,2.275
				c0.057,0.711,0.1,1.315,0.129,1.815c0.027,0.501,0.041,0.88,0.041,1.138v23.286h-3.91V211.113z"/>
			<path d="M330.188,242.581c0,0.517,0.24,0.968,0.723,1.355c0.48,0.387,1.459,0.581,2.934,0.581c1.303,0,2.266-0.153,2.889-0.46
				s0.936-0.831,0.936-1.573v-5.955c0-0.903-0.143-1.67-0.424-2.3c-0.285-0.629-0.738-1.347-1.361-2.154l-7.055-7.601
				c-0.68-0.742-1.219-1.557-1.615-2.444s-0.594-1.653-0.594-2.3v-5.083c0-1.162,0.65-2.073,1.955-2.735
				c1.303-0.661,3.088-0.992,5.354-0.992c2.381,0,4.166,0.267,5.355,0.799s1.785,1.38,1.785,2.541v6.342h-3.57v-6.147
				c0-1.194-1.105-1.792-3.314-1.792c-1.135,0-1.984,0.187-2.551,0.558s-0.85,0.815-0.85,1.331v5.373
				c0,1.065,0.453,2.163,1.359,3.292c1.133,1.228,2.281,2.478,3.443,3.752c1.16,1.275,2.309,2.542,3.441,3.801
				c0.736,0.807,1.346,1.639,1.828,2.493c0.48,0.855,0.723,1.783,0.723,2.783v6.536c0,1.13-0.566,2.025-1.699,2.687
				c-1.135,0.662-3.061,0.992-5.781,0.992c-2.719,0-4.646-0.33-5.779-0.992c-1.135-0.661-1.699-1.605-1.699-2.832v-6.294h3.568
				V242.581z"/>
		</g>
	</g>
</g>
</svg>
